<svg xmlns="http://www.w3.org/2000/svg" width="128" height="50" fill="none" viewBox="0 0 128 50"><path fill="#ff2e70" d="M53.295 48.27c0-.793.624-1.414 1.424-1.414s1.425.62 1.425 1.414-.625 1.413-1.425 1.413-1.424-.62-1.424-1.413m9.475-34.201c0-3.881 2.304-6.259 5.778-6.259s5.778 2.377 5.778 6.259-2.292 6.27-5.778 6.27-5.778-2.378-5.778-6.27m9.01 0c0-2.675-1.275-4.215-3.232-4.215s-3.23 1.539-3.23 4.215 1.273 4.226 3.23 4.226 3.231-1.539 3.231-4.226m13.997 6.041H83.38v-2.044h-.059c-.671 1.446-1.91 2.26-3.774 2.26-2.652 0-4.273-1.71-4.273-4.477V8.03h2.502v7.337c0 1.837.88 2.825 2.605 2.825s2.895-1.24 2.895-3.122V8.03h2.501zm1.426-12.081h2.386v2.055h.058c.405-1.412 1.493-2.25 2.93-2.25.359 0 .672.057.857.091v2.309c-.197-.08-.637-.138-1.124-.138-1.61 0-2.605 1.069-2.605 2.778v7.234h-2.5V8.028zM67.149 31.152c-.348 2.205-2.455 3.778-5.246 3.778-3.578 0-5.744-2.4-5.744-6.213 0-3.812 2.2-6.316 5.64-6.316s5.488 2.366 5.488 6.028v.85h-8.603v.15c0 2.1 1.274 3.49 3.277 3.49 1.425 0 2.478-.712 2.814-1.768zm-8.453-3.605h6.09c-.058-1.85-1.238-3.147-2.988-3.147s-2.976 1.321-3.102 3.147"/><path fill="#ff2e70" d="M71.888 30.257 69.19 34.7h-2.71l4.018-6.028-3.96-6.051h2.802l2.663 4.374h.047l2.628-4.374h2.757l-3.996 5.972 3.95 6.107h-2.757l-2.686-4.443zm17.925-1.597c0 3.824-2.027 6.247-5.083 6.247-1.749 0-3.139-.85-3.833-2.193h-.058v3.862h-2.501V22.621h2.42V24.7h.046c.719-1.39 2.12-2.274 3.88-2.274 3.092 0 5.129 2.412 5.129 6.235m-2.57 0c0-2.525-1.24-4.145-3.22-4.145-1.979 0-3.196 1.654-3.196 4.146s1.274 4.145 3.196 4.145 3.22-1.608 3.22-4.145m14.348 2.49c-.347 2.205-2.454 3.778-5.245 3.778-3.578 0-5.744-2.4-5.744-6.213 0-3.812 2.2-6.316 5.64-6.316s5.488 2.366 5.488 6.028v.85h-8.603v.15c0 2.1 1.274 3.49 3.277 3.49 1.425 0 2.478-.712 2.814-1.768zm-8.452-3.605h6.09c-.058-1.85-1.238-3.147-2.987-3.147s-2.977 1.321-3.103 3.147m23.305 1.201c0-3.881 2.304-6.259 5.778-6.259S128 24.867 128 28.748c0 3.88-2.293 6.27-5.778 6.27s-5.778-2.378-5.778-6.27m9.009 0c0-2.675-1.274-4.215-3.231-4.215s-3.231 1.539-3.231 4.215 1.274 4.225 3.231 4.225 3.231-1.539 3.231-4.225M64.775 41.402c-.255-1.286-1.228-2.309-2.86-2.309-1.935 0-3.209 1.597-3.209 4.191 0 2.596 1.285 4.191 3.231 4.191 1.54 0 2.548-.837 2.838-2.238h2.408c-.267 2.571-2.34 4.316-5.268 4.316-3.486 0-5.756-2.365-5.756-6.268s2.27-6.259 5.732-6.259c3.138 0 5.049 1.998 5.27 4.375zm3.076 1.885c0-3.881 2.304-6.259 5.778-6.259s5.778 2.378 5.778 6.259c0 3.88-2.292 6.27-5.778 6.27s-5.778-2.378-5.778-6.27m9.009 0c0-2.675-1.274-4.215-3.23-4.215-1.958 0-3.232 1.539-3.232 4.215s1.274 4.225 3.231 4.225 3.231-1.539 3.231-4.225m3.451-6.04h2.386v2.032h.058c.544-1.343 1.818-2.239 3.462-2.239s2.918.862 3.404 2.366h.058c.625-1.47 2.061-2.366 3.799-2.366 2.408 0 3.983 1.584 3.983 3.984v8.302h-2.513V41.62c0-1.562-.846-2.457-2.327-2.457-1.482 0-2.513 1.09-2.513 2.618v7.544h-2.454v-7.888c0-1.39-.892-2.274-2.304-2.274-1.482 0-2.537 1.148-2.537 2.698v7.464h-2.5V37.246zM62.673 10.034V8.07h-2.316V5.696h-1.67c-.192 1.334-.81 2.477-2.614 2.695v1.643h1.772v6.89c0 2.331.96 3.262 3.427 3.262.556 0 1.112-.046 1.39-.115v-1.964a5.6 5.6 0 0 1-.823.057c-1.02 0-1.483-.47-1.483-1.516v-6.614zm42.902 15.623s.197-.493.962-.816q.32-.146.701-.204c.425-.077.959-.098 1.614-.029v-2.18a4.7 4.7 0 0 0-.857-.091c-1.435 0-2.524.837-2.93 2.25h-.058v-2.055h-2.384v12.08h2.5v-7.235c0-.681.16-1.258.453-1.71z"/><path fill="#ff2e70" d="M116.486 24.852v-1.964h-2.316v-2.374h-1.671c-.191 1.334-.81 2.477-2.614 2.695v1.643h1.772v6.89c0 2.33.962 3.262 3.428 3.262.556 0 1.112-.046 1.389-.116v-1.963a5.6 5.6 0 0 1-.823.057c-1.019 0-1.481-.47-1.481-1.516v-6.614zM39.08 40.604c2.04 3.197 4.67 6.35 8.085 9.374 0 0-9.517.554-19.74-3.868 1.07-.18 2.141-.408 3.205-.743a23.4 23.4 0 0 0 8.45-4.762"/><path fill="#d6006d" d="M32.63 21.843c-2.251 1.433-6.848 4.031-12.22 6.108-4.533 1.752-8.98 2.572-10.728 2.851 4.785 7.903 11.398 12.564 17.742 15.308 1.07-.18 2.142-.408 3.206-.743a23.4 23.4 0 0 0 8.448-4.762c-4.003-6.271-5.716-12.756-6.45-18.762"/><path fill="#a66afe" d="m12.86 35.29-.296-.363zm1.054 1.224-.323-.362q.16.181.323.362m3.27 3.212-.339-.295q.17.149.34.295m-.565-.5q-.167-.15-.333-.302.166.152.333.302m-.556-.512q-.165-.154-.328-.311zm-.55-.528-.324-.32zm-.54-.542q-.163-.164-.325-.333zm-5.262-6.795c.081.136.167.268.25.402zm.712 1.125q-.14-.21-.275-.423zm.466.694-.278-.405q.138.204.278.405m.975 1.358q-.148-.196-.295-.395zm2.577 3.064c-.11-.117-.218-.23-.325-.35zm9.17 7.136q-.182-.101-.364-.205.18.104.364.205m-6.204-4.306q.168.143.334.28-.167-.138-.334-.28m5.598 3.96q-.177-.101-.353-.206zm3.675 1.899-.447-.206zm-1.641-.79.423.211zm-2.622-1.459-.358-.217zm-.6-.37-.35-.222zm-3.509-2.496-.332-.267zm1.151.885q-.168-.123-.334-.248zm1.168.831q-.169-.114-.337-.232.168.117.337.232m-.584-.408q-.17-.119-.337-.241z"/><path fill="#ff2e70" d="m26.681 45.779-.447-.206-.194-.093q-.202-.094-.403-.193l-.173-.086-.423-.211-.254-.132q-.173-.088-.343-.178-.128-.067-.252-.137l-.346-.187-.232-.13q-.182-.101-.364-.205c-.08-.045-.161-.095-.243-.14l-.353-.207-.236-.144q-.18-.108-.358-.218l-.242-.153-.35-.222q-.128-.082-.252-.166l-.338-.222q-.123-.086-.25-.17-.169-.114-.337-.232l-.247-.176-.337-.241-.246-.182-.334-.248-.246-.19q-.165-.126-.331-.256-.12-.095-.24-.193l-.333-.266-.233-.196q-.168-.138-.335-.28l-.224-.194q-.169-.146-.338-.295-.114-.102-.226-.205-.167-.15-.333-.302l-.223-.21-.33-.31-.22-.218-.324-.32-.216-.222q-.162-.164-.325-.334-.104-.11-.207-.222-.165-.172-.325-.349-.102-.112-.203-.227l-.323-.361-.204-.238q-.157-.181-.313-.365l-.213-.26-.296-.362-.208-.263q-.148-.187-.295-.377-.1-.13-.197-.262-.148-.194-.295-.395-.1-.137-.199-.277-.143-.196-.284-.397-.1-.144-.197-.288l-.277-.405-.189-.29q-.139-.21-.275-.423-.094-.148-.187-.3l-.25-.402a64 64 0 0 1-6.69.846q-.668.047-1.336.08c4.111 10.25 14.91 16.155 25.74 14.334a33 33 0 0 1-.595-.263l-.15-.068"/><path fill="#a66afe" d="M31.08 22.806q-.367.224-.736.441c.225-.127.488-.283.745-.44zM44.292 12.21l-.001-.004zM1.716 31.86h.005q-.019-.04-.036-.084.667-.033 1.337-.08a64 64 0 0 0 6.69-.847l-.163-.255c-6.12-9.459-6.216-19.39-6.216-19.403-3.325 5.527-4.344 12.383-2.227 19.001.182.569.39 1.122.61 1.668"/><path fill="#ff2e70" d="M45.935 16.089a23.3 23.3 0 0 0-1.649-3.894 63 63 0 0 1-11.659 9.646l.006.042h.001c.734 6.006 2.442 12.45 6.447 18.722 6.76-5.925 9.757-15.438 6.854-24.516"/><path fill="#6c58fe" d="M9.682 30.8c1.748-.277 6.195-1.097 10.728-2.85 5.37-2.076 9.968-4.673 12.219-6.106a33 33 0 0 1-.107-.801l.015-.005c-1.155-10.642 1.255-18.826 1.255-18.826-20.684-8.185-30.46 8.978-30.46 8.978s.093 9.94 6.217 19.403l.163.256-.03-.047"/><path fill="#a46afe" d="M33.791 2.217c-.032.11-2.402 8.25-1.254 18.82l-.015.004c.03.245.057.445.077.59l.03.208a63 63 0 0 0 11.657-9.644c-2.381-4.453-6.106-7.864-10.494-9.978"/></svg>